<svg width="70" height="70" viewBox="0 0 70 70" fill="none" xmlns="http://www.w3.org/2000/svg">
<circle cx="35" cy="35" r="35" fill="#BEE1E6"/>
<path d="M46.4764 30.1526L46.7727 30.3197L46.9348 30.6252C47.0349 30.8137 47.1972 30.9587 47.3925 31.0336C47.5876 31.1088 47.8025 31.1088 47.9978 31.0336C48.1929 30.9587 48.3555 30.8137 48.4553 30.6252L48.6174 30.3197L48.9138 30.1526C49.0966 30.0494 49.2373 29.882 49.3101 29.6807C49.3828 29.4796 49.3828 29.258 49.3101 29.0566C49.2373 28.8555 49.0966 28.6879 48.9138 28.585L48.6174 28.4178L48.4553 28.1124C48.3555 27.9238 48.1929 27.7788 47.9978 27.7037C47.8025 27.6288 47.5876 27.6288 47.3925 27.7037C47.1972 27.7788 47.0349 27.9238 46.9348 28.1124L46.7727 28.4178L46.4764 28.5876C46.2938 28.6905 46.1531 28.8581 46.0802 29.0592C46.0076 29.2606 46.0076 29.4822 46.0802 29.6835C46.1531 29.8847 46.2938 30.0523 46.4764 30.1552V30.1526ZM46.8483 29.2872L47.3204 29.021C47.3356 29.0122 47.348 28.9993 47.3566 28.9836L47.6148 28.4963C47.631 28.4661 47.6619 28.4473 47.6955 28.4478C47.729 28.4473 47.7596 28.4661 47.7755 28.4963L48.0338 28.9836C48.0423 28.9991 48.0548 29.0122 48.07 29.021L48.5427 29.2872H48.5425C48.572 29.3039 48.5902 29.3355 48.5902 29.37C48.5902 29.4047 48.572 29.4363 48.5425 29.4529L48.0698 29.7192H48.07C48.0548 29.728 48.0423 29.7408 48.0338 29.7565L47.7755 30.2432C47.7599 30.2736 47.729 30.2924 47.6955 30.2924C47.6619 30.2924 47.631 30.2736 47.6148 30.2432L47.3566 29.7565C47.3483 29.7406 47.3358 29.7277 47.3204 29.7192L46.8483 29.4529C46.8184 29.4365 46.7997 29.4044 46.7997 29.3695C46.7997 29.3343 46.8184 29.3022 46.8483 29.2858V29.2872Z" fill="#006D77"/>
<path d="M22.0497 38.8142L22.5713 39.1085L22.8568 39.6463C22.9615 39.8441 23.1316 39.996 23.3362 40.0747C23.5409 40.1534 23.766 40.1534 23.9708 40.0747C24.1753 39.996 24.3455 39.8441 24.4502 39.6463L24.7349 39.1085L25.2565 38.8142C25.4482 38.7063 25.5953 38.5306 25.6716 38.3197C25.7477 38.1089 25.7477 37.8768 25.6716 37.666C25.5953 37.4551 25.4482 37.2797 25.2565 37.1715L24.7349 36.8779L24.4495 36.3394C24.3448 36.1421 24.1744 35.9902 23.9698 35.9117C23.7653 35.833 23.5403 35.833 23.3357 35.9117C23.1312 35.9902 22.961 36.1421 22.8561 36.3394L22.5706 36.8779L22.0497 37.1748C21.8583 37.283 21.711 37.4584 21.6349 37.6693C21.5586 37.8802 21.5586 38.1122 21.6349 38.3231C21.711 38.5339 21.8583 38.7096 22.0497 38.8176L22.0497 38.8142ZM22.4216 37.8723L23.1079 37.4855V37.4857C23.1303 37.4729 23.1485 37.4541 23.1609 37.4311L23.5368 36.7228H23.5366C23.5601 36.6791 23.6048 36.6517 23.6535 36.6517C23.7021 36.6517 23.7469 36.6791 23.7704 36.7228L24.1463 37.4311H24.146C24.1585 37.4541 24.1767 37.4729 24.1991 37.4857L24.8853 37.8725V37.8723C24.9282 37.8963 24.9549 37.9427 24.9549 37.9928C24.9549 38.0432 24.9282 38.0893 24.8853 38.1134L24.1991 38.5009C24.1765 38.5132 24.1582 38.5322 24.146 38.5553L23.7702 39.2628L23.7704 39.263C23.7471 39.307 23.7021 39.3346 23.6535 39.3346C23.6048 39.3346 23.5599 39.307 23.5366 39.263L23.1607 38.5555L23.1609 38.5553C23.1487 38.5322 23.1305 38.5132 23.1079 38.5009L22.4216 38.1134C22.3788 38.0894 22.352 38.0432 22.352 37.9928C22.352 37.9427 22.3788 37.8963 22.4216 37.8723V37.8723Z" fill="#006D77"/>
<path d="M34.3187 37.5988C34.5369 37.5023 34.6319 37.4716 34.7642 37.5323C35.0368 37.6604 35.3499 37.6604 35.6225 37.5323C35.7556 37.4709 35.8503 37.5016 36.0687 37.5988H36.0685C36.2294 37.682 36.4054 37.7301 36.585 37.7398C36.6581 37.7398 36.7307 37.7291 36.8008 37.708C37.0031 37.6442 37.1183 37.425 37.0598 37.2154C37.0014 37.0059 36.7907 36.8835 36.5864 36.9403C36.5124 36.9253 36.4406 36.8997 36.3733 36.8645C36.1286 36.7565 35.7593 36.593 35.3034 36.8046C35.2335 36.8388 35.1521 36.8388 35.082 36.8046C34.63 36.593 34.2569 36.7565 34.0128 36.8645C33.9454 36.8989 33.8739 36.9249 33.8004 36.941C33.6998 36.9044 33.5889 36.9123 33.4941 36.9624C33.3991 37.0128 33.3286 37.1012 33.2991 37.207C33.2695 37.3126 33.2836 37.4262 33.3378 37.5208C33.3922 37.6157 33.4819 37.683 33.5859 37.7072C33.876 37.7945 34.1214 37.6858 34.3187 37.5988L34.3187 37.5988Z" fill="#006D77"/>
<path d="M35.7066 38.2001H34.6782C34.4642 38.2001 34.2908 38.3789 34.2908 38.5995C34.2908 38.8201 34.4642 38.9989 34.6782 38.9989H35.7054C35.9194 38.9989 36.0928 38.8201 36.0928 38.5995C36.0928 38.3789 35.9194 38.2001 35.7054 38.2001H35.7066Z" fill="#006D77"/>
<path d="M42.9427 43.7171L42.8505 43.6786C42.8228 43.2473 42.7801 42.8179 42.7213 42.3986V42.3984C42.6745 42.0686 42.4746 41.7834 42.1854 41.6343L40.7475 40.8874C40.4689 40.7421 40.1396 40.7421 39.8611 40.8874C39.5855 41.0262 39.3909 41.292 39.3367 41.6029C39.3213 41.6909 39.3019 41.7827 39.2804 41.8778V41.878C39.1873 41.7641 39.101 41.6445 39.0222 41.5197C38.7266 41.0538 38.5663 40.5039 38.4805 40.0679V40.0682C39.1338 39.4869 39.751 38.8645 40.3291 38.2043C40.8669 37.6005 41.2635 36.873 41.5598 36.0835C44.4168 35.3739 44.5661 32.3865 44.659 30.5345H44.6588C44.6816 30.0683 44.579 29.6045 44.3625 29.1944C44.1462 28.7843 43.8242 28.4436 43.432 28.2099C43.3236 27.0724 43.0008 25.7517 42.4912 24.7419H42.4914C42.6503 24.6981 42.7831 24.5854 42.8555 24.4331C42.9415 24.2543 42.9314 24.0422 42.8283 23.8732C42.0201 22.53 40.5272 21.3765 38.7768 20.7175C38.8411 20.5632 38.8381 20.3882 38.7689 20.2363C38.6997 20.0846 38.5708 19.9705 38.4147 19.9232C38.0158 19.7986 37.6109 19.6957 37.2013 19.6151C37.2007 19.471 37.1555 19.3313 37.0722 19.2157C36.9032 18.9942 36.6537 18.8529 36.3814 18.8249C35.5936 18.725 34.797 18.725 34.0092 18.8249C33.7369 18.8532 33.4874 18.9941 33.3177 19.2157C33.2107 19.3634 33.1676 19.55 33.1989 19.7316C31.6946 20.185 30.6234 21.0976 30.0998 22.132C30.0917 22.1503 30.0767 22.1646 30.0585 22.1719C28.719 22.5977 27.6059 23.5684 26.9769 24.8597C26.8823 25.0511 26.9042 25.2815 27.0329 25.4503C27.1547 25.6129 27.3527 25.6939 27.5494 25.6611C27.2854 26.4806 27.0996 27.3246 26.9949 28.1813C26.5925 28.4117 26.2609 28.7538 26.0377 29.1687C25.8145 29.5835 25.7086 30.0547 25.7319 30.5285C25.8241 32.3817 25.9733 35.3712 28.835 36.0786C29.1313 36.8661 29.5276 37.5944 30.0656 38.198C30.6421 38.8582 31.258 39.4808 31.9097 40.0619C31.7985 40.627 31.6087 41.1369 31.3673 41.5182V41.5185C31.288 41.6426 31.2018 41.7622 31.1091 41.8758C31.0871 41.7807 31.0678 41.6887 31.0523 41.601H31.0521C30.9981 41.29 30.8033 41.0242 30.528 40.8854C30.2492 40.7399 29.9201 40.7399 29.6413 40.8854L28.2008 41.6343C27.9128 41.7829 27.7131 42.0672 27.6663 42.3958C27.6075 42.8151 27.5648 43.2444 27.5372 43.6757L27.4454 43.7142C24.6963 44.906 22.5061 47.5467 21.2784 51.1531C21.2101 51.3561 21.2412 51.5803 21.3616 51.7555C21.482 51.9307 21.6771 52.0353 21.8853 52.0365H48.502C48.7103 52.0351 48.9049 51.9305 49.0252 51.7553C49.1454 51.5801 49.1763 51.3559 49.1083 51.1531C47.8808 47.5467 45.6902 44.9058 42.943 43.7173L42.9427 43.7171ZM37.7555 20.9476C37.792 21.1247 37.9188 21.2675 38.0867 21.3203C39.7248 21.8417 41.1517 22.8276 41.9742 23.9944C41.8112 24.0201 41.6705 24.1266 41.5979 24.2792C41.5208 24.4394 41.5301 24.6291 41.6223 24.7806C42.1155 25.5967 42.4617 26.8127 42.6116 27.8984C42.2454 27.8319 41.8457 27.776 41.4261 27.7239C41.151 26.8527 40.648 26.0358 39.9166 25.2817H39.9164C39.8057 25.1678 39.6395 25.1336 39.4949 25.1951C39.3503 25.2567 39.2558 25.402 39.2553 25.5634C39.2553 25.7495 39.2336 25.935 39.1907 26.1159C38.7469 25.6858 38.2721 25.2914 37.7703 24.9355C37.6619 24.2114 37.5296 23.6042 37.4106 23.0531C37.1975 22.072 37.0322 21.3117 37.1014 20.4064C37.3352 20.4545 37.5752 20.5115 37.8227 20.5802C37.7547 20.6889 37.7304 20.8208 37.7556 20.9475L37.7555 20.9476ZM37.9841 27.4364C37.9704 26.9225 37.9414 26.4532 37.9015 26.0205V26.0207C38.309 26.3519 38.6936 26.7118 39.0526 27.0979C39.134 27.1854 39.2498 27.2298 39.3669 27.2191C39.4841 27.2082 39.5901 27.143 39.6549 27.0418C39.7624 26.8632 39.8454 26.6702 39.9017 26.4681C40.1705 26.8228 40.3926 27.2127 40.5621 27.6276C39.7145 27.5432 38.8209 27.4806 37.9841 27.4367L37.9841 27.4364ZM34.105 19.6159C34.8293 19.5239 35.5622 19.5239 36.2867 19.6159C36.3321 19.6214 36.3759 19.6364 36.4158 19.6597C36.1723 21.0124 36.3854 21.9895 36.6533 23.2269C36.8786 24.2653 37.1523 25.5286 37.2072 27.3998C36.4202 27.3679 35.7171 27.3532 35.1927 27.3532C34.6684 27.3532 33.966 27.3679 33.1829 27.3998C33.2371 25.5286 33.5108 24.2653 33.7368 23.2269C34.0047 21.9921 34.2178 21.0121 33.9743 19.6597H33.9745C34.0146 19.6364 34.0591 19.6214 34.105 19.6159H34.105ZM32.4069 27.4358C31.5676 27.4798 30.6715 27.543 29.8179 27.6282C29.9643 27.1952 30.1762 26.7887 30.446 26.424C30.7243 26.0598 31.1878 25.6105 31.818 25.5406C31.9324 25.5278 32.0352 25.4631 32.0989 25.3642C32.2474 25.131 32.4335 24.9258 32.6491 24.7573C32.5091 25.6433 32.4282 26.5384 32.407 27.4358L32.4069 27.4358ZM30.2795 22.9346C30.4974 22.8663 30.6791 22.7099 30.7836 22.5014C31.1161 21.8477 31.9375 20.9878 33.2977 20.5318C33.3429 21.3825 33.184 22.1175 32.9813 23.0528C32.9336 23.271 32.8845 23.4987 32.8347 23.7398L32.8349 23.7396C32.3232 23.9542 31.8798 24.3123 31.5551 24.7732C30.9134 24.8971 30.3226 25.2938 29.837 25.93H29.8372C29.4415 26.4659 29.1477 27.0738 28.9714 27.7221C28.5627 27.7727 28.1721 27.8286 27.8138 27.8911C27.9275 27.1455 28.1509 26.193 28.4595 25.4234L28.4593 25.4236C28.5284 25.2574 28.5015 25.0654 28.3896 24.9263C28.2766 24.7872 28.0988 24.7237 27.9266 24.7606C28.4819 23.8891 29.3136 23.2436 30.2795 22.9345L30.2795 22.9346ZM27.906 28.6851C30.1013 28.2971 33.5419 28.1526 35.1935 28.1526C36.845 28.1526 40.2837 28.2976 42.4803 28.6851L42.4801 28.6853C42.9002 28.759 43.2775 28.9942 43.5364 29.3429C37.9861 28.842 32.4037 28.8406 26.8535 29.3382C27.1123 28.992 27.4879 28.7588 27.906 28.6853L27.906 28.6851ZM26.5042 30.4871C26.4992 30.3818 26.5033 30.2762 26.5165 30.1716C32.2891 29.6267 38.0979 29.6267 43.8706 30.1716C43.8837 30.2753 43.8876 30.3801 43.8821 30.4845C43.758 32.9788 43.4114 35.2325 40.5756 35.4184C39.4662 35.494 38.3525 35.3728 37.2828 35.0601C35.9172 34.6591 34.4702 34.6591 33.1047 35.0601C32.0352 35.3728 30.9215 35.494 29.8119 35.4184C26.9749 35.2353 26.6288 32.9807 26.5043 30.4871H26.5042ZM30.6365 37.6576C30.2638 37.2287 29.9589 36.7421 29.7326 36.2158H29.7623C29.9929 36.2305 30.2233 36.2384 30.4518 36.2384C31.4207 36.2398 32.3853 36.1019 33.3174 35.8283C34.5439 35.4676 35.844 35.4676 37.0705 35.8283C38.2252 36.1661 39.4276 36.2971 40.6255 36.2158H40.6597C40.4335 36.7421 40.1284 37.2288 39.7558 37.6576C38.6911 38.8525 38.03 39.443 36.9518 40.3162C36.4509 40.7223 35.8322 40.9431 35.1951 40.9431C34.558 40.9431 33.9395 40.7223 33.4387 40.3162C32.3611 39.4428 31.7 38.8525 30.6352 37.6576L30.6365 37.6576ZM32.0163 41.9537C32.2677 41.5441 32.4561 41.0967 32.5748 40.6276C32.6989 40.7301 32.8273 40.8347 32.9622 40.9445C33.5991 41.4616 34.3861 41.7426 35.1967 41.7426C36.0074 41.7426 36.7944 41.4616 37.4313 40.9445C37.5655 40.8361 37.6896 40.7322 37.8148 40.631C37.9342 41.0988 38.1226 41.5451 38.3733 41.9537C38.558 42.2475 38.777 42.5169 39.0254 42.7558C38.7083 43.67 38.317 44.5548 37.8556 45.4011C36.0768 46.4695 34.3181 46.4662 32.5308 45.3959C32.0705 44.5512 31.6799 43.668 31.3636 42.7558C31.6119 42.5172 31.8305 42.2476 32.015 41.9537L32.0163 41.9537ZM31.7168 51.2373H22.0716C23.1983 48.0474 25.1152 45.695 27.5016 44.5634C27.484 45.4259 27.5369 46.2887 27.6591 47.1421C27.8327 48.2918 28.2208 49.6942 29.086 49.8454C29.1309 49.853 29.1761 49.8568 29.2216 49.8568C29.7976 49.8568 30.7945 49.3302 32.3415 48.3809C32.2034 48.9966 31.7726 50.9855 31.7152 51.2373L31.7168 51.2373ZM30.49 48.548C29.4964 49.0805 29.2421 49.0625 29.2167 49.0587C29.0173 49.024 28.6421 48.4522 28.4258 47.0203C28.2243 45.6831 28.2271 43.9976 28.4341 42.5125C28.4452 42.4421 28.4888 42.3817 28.551 42.3508L29.9909 41.6012C30.0518 41.5696 30.1237 41.5696 30.1846 41.6012C30.2404 41.6288 30.2798 41.6823 30.2911 41.7451C30.583 43.3867 31.6972 45.6884 32.5979 47.0218V47.0216C32.6249 47.0603 32.639 47.1072 32.6374 47.1547C32.6291 47.1847 32.6205 47.2165 32.6115 47.2505V47.2508C32.594 47.2847 32.568 47.313 32.5361 47.3332L32.3535 47.4464C31.8324 47.7671 31.1208 48.2098 30.4894 48.5481L30.49 48.548ZM32.5103 51.2373C32.5536 51.0376 33.1843 48.1387 33.3457 47.5096C33.3632 47.4607 33.3771 47.4103 33.387 47.3591C33.4368 47.1147 33.3978 46.8599 33.2779 46.6428C34.509 47.1247 35.8684 47.1266 37.1009 46.6483C36.9838 46.8644 36.9469 47.1171 36.9969 47.3591C37.008 47.4102 37.023 47.4602 37.0414 47.5089C37.2028 48.1393 37.8337 51.0369 37.8768 51.2366L32.5103 51.2373ZM37.8531 47.3313V47.3311C37.8211 47.3113 37.7948 47.283 37.7768 47.2493C37.7678 47.2146 37.7593 47.1827 37.751 47.1528C37.7503 47.1052 37.7639 47.0586 37.7904 47.0196C38.6911 45.6883 39.8062 43.3845 40.0979 41.7429C40.1085 41.6799 40.1484 41.6264 40.2045 41.5993C40.2344 41.5839 40.2674 41.5758 40.3006 41.576C40.3343 41.5758 40.3673 41.5841 40.397 41.5998L41.8375 42.3493H41.8373C41.8995 42.3809 41.9429 42.4413 41.9542 42.5117C42.1608 43.9968 42.164 45.6821 41.962 47.0196C41.7464 48.4515 41.3712 49.0232 41.1718 49.0579C41.1459 49.062 40.8923 49.0798 39.8984 48.5473C39.2671 48.2092 38.5548 47.7666 38.0351 47.4437L37.8531 47.3313ZM38.6717 51.2373C38.6168 50.9862 38.1842 48.9973 38.0454 48.3816C39.595 49.3309 40.59 49.8575 41.1658 49.8575V49.8572C41.211 49.8575 41.2562 49.8537 41.3009 49.8461C42.168 49.6949 42.5553 48.291 42.7271 47.1428C42.85 46.2891 42.9028 45.4261 42.8846 44.5634C45.2736 45.695 47.1886 48.0466 48.3146 51.2367L38.6717 51.2373Z" fill="#006D77"/>
</svg>
